<svg width="17" height="16" viewBox="0 0 17 16" fill="none" xmlns="http://www.w3.org/2000/svg">
<g clip-path="url(#clip0_4_17383)">
<path d="M10.1905 6.31328L6.81719 9.68661C6.38385 9.25328 6.11719 8.65995 6.11719 7.99995C6.11719 6.67995 7.18385 5.61328 8.50385 5.61328C9.16385 5.61328 9.75719 5.87995 10.1905 6.31328Z" stroke="#171717" stroke-linecap="round" stroke-linejoin="round"/>
<path d="M12.3799 3.84682C11.2132 2.96682 9.8799 2.48682 8.4999 2.48682C6.14656 2.48682 3.95323 3.87348 2.42656 6.27348C1.82656 7.21348 1.82656 8.79348 2.42656 9.73348C2.95323 10.5602 3.56656 11.2735 4.23323 11.8468" stroke="#171717" stroke-linecap="round" stroke-linejoin="round"/>
<path d="M6.11719 13.02C6.87719 13.34 7.68385 13.5133 8.50385 13.5133C10.8572 13.5133 13.0505 12.1266 14.5772 9.72662C15.1772 8.78662 15.1772 7.20662 14.5772 6.26662C14.3572 5.91995 14.1172 5.59329 13.8705 5.28662" stroke="#171717" stroke-linecap="round" stroke-linejoin="round"/>
<path d="M10.8409 8.4668C10.6676 9.4068 9.90094 10.1735 8.96094 10.3468" stroke="#171717" stroke-linecap="round" stroke-linejoin="round"/>
<path d="M6.81594 9.68652L1.83594 14.6665" stroke="#171717" stroke-linecap="round" stroke-linejoin="round"/>
<path d="M15.1675 1.3335L10.1875 6.3135" stroke="#171717" stroke-linecap="round" stroke-linejoin="round"/>
</g>
<defs>
<clipPath id="clip0_4_17383">
<rect width="16" height="16" fill="white" transform="translate(0.5)"/>
</clipPath>
</defs>
</svg>
