<svg width="16" height="16" viewBox="0 0 16 16" fill="none" xmlns="http://www.w3.org/2000/svg">
<path d="M12.6641 7.33335H8.66406V3.33335C8.66406 3.15654 8.59382 2.98697 8.4688 2.86195C8.34378 2.73693 8.17421 2.66669 7.9974 2.66669C7.82058 2.66669 7.65102 2.73693 7.52599 2.86195C7.40097 2.98697 7.33073 3.15654 7.33073 3.33335V7.33335H3.33073C3.15392 7.33335 2.98435 7.40359 2.85932 7.52862C2.7343 7.65364 2.66406 7.82321 2.66406 8.00002C2.66406 8.17683 2.7343 8.3464 2.85932 8.47142C2.98435 8.59645 3.15392 8.66669 3.33073 8.66669H7.33073V12.6667C7.33073 12.8435 7.40097 13.0131 7.52599 13.1381C7.65102 13.2631 7.82058 13.3334 7.9974 13.3334C8.17421 13.3334 8.34378 13.2631 8.4688 13.1381C8.59382 13.0131 8.66406 12.8435 8.66406 12.6667V8.66669H12.6641C12.8409 8.66669 13.0104 8.59645 13.1355 8.47142C13.2605 8.3464 13.3307 8.17683 13.3307 8.00002C13.3307 7.82321 13.2605 7.65364 13.1355 7.52862C13.0104 7.40359 12.8409 7.33335 12.6641 7.33335Z" fill="#222930"/>
</svg>
