<svg width="21" height="29" viewBox="0 0 21 29" fill="none" xmlns="http://www.w3.org/2000/svg">
<path fill-rule="evenodd" clip-rule="evenodd" d="M13.0974 0.464725C12.383 0.902183 11.4595 2.00326 11.0734 2.87817L10.727 3.663L10.3838 3.10777C9.83093 2.21331 8.86546 1.42754 8.31883 1.42754C6.8488 1.42754 6.089 2.97796 7.01803 4.08201C7.24435 4.35102 7.78972 4.76095 8.23015 4.99321C8.94585 5.37061 9.19766 5.41565 10.5982 5.41565C12.0536 5.41581 12.24 5.37921 13.2078 4.90265C14.4256 4.30331 15.6166 3.08744 15.7658 2.29151C16.0464 0.796457 14.3984 -0.331677 13.0974 0.464725ZM13.1342 1.72908C12.5978 2.19986 11.768 3.65174 11.768 4.11907C11.768 4.35634 11.8451 4.34977 12.5623 4.05166C13.5397 3.64549 14.7396 2.52142 14.7396 2.01202C14.7396 1.17245 13.9306 1.02981 13.1342 1.72908ZM7.80583 2.62668C7.74843 2.68392 7.70151 2.89413 7.70151 3.09354C7.70151 3.52161 8.59895 4.17991 9.40114 4.34023L9.92258 4.44455L9.67797 3.97143C9.09318 2.84048 8.21951 2.213 7.80583 2.62668ZM3.04744 6.37987C2.6813 6.50953 2.07274 6.92462 1.69487 7.30249C0.492758 8.5046 0.506833 8.3837 0.507928 17.4475C0.508397 22.4676 0.56877 25.6518 0.670588 26.0179C0.92615 26.9381 1.74163 27.8885 2.68662 28.3679C3.53025 28.7958 3.55152 28.798 6.75199 28.7974C9.70315 28.7969 10.0122 28.7708 10.487 28.4811C11.209 28.041 11.4552 27.343 11.4552 25.7366C11.4552 23.8773 11.1552 22.8439 9.81951 20.1008C9.18671 18.8012 8.43785 17.0417 8.15539 16.1907C7.67977 14.7573 7.64129 14.4878 7.63269 12.5243L7.62331 10.4052L8.21686 9.20388C8.65963 8.30769 9.04501 7.79594 9.7338 7.18972C10.2418 6.74257 10.6215 6.31903 10.5778 6.24818C10.5341 6.17749 8.97166 6.12525 7.10577 6.13197C4.50777 6.14136 3.55731 6.19954 3.04744 6.37987ZM11.453 6.4623C10.7817 6.90695 10.0963 8.22104 9.89709 9.44567C9.62307 11.1292 9.98061 12.4721 11.9345 17.0974C13.4787 20.753 13.8012 21.8881 13.8012 23.6667C13.8012 25.4949 13.4107 26.5414 12.2904 27.7162C11.8316 28.1971 11.5029 28.6372 11.56 28.6943C11.6171 28.7514 12.9754 28.798 14.5785 28.798C17.4013 28.798 17.5192 28.7852 18.3064 28.3929C18.7535 28.17 19.3329 27.7302 19.5937 27.4154C20.5225 26.2946 20.5419 26.0724 20.4929 17.1265C20.4486 9.06765 20.446 9.00869 20.0984 8.35868C19.6224 7.46781 19.1638 7.00204 18.3342 6.56615C17.6859 6.22566 17.4207 6.19422 14.8156 6.14949C12.0933 6.10273 11.9797 6.1132 11.453 6.4623Z" fill="black"/>
</svg>
